# xmcd
#
# Track frame offsets: 
#        150
#        16910
#        36163
#        51025
#        72420
#        92595
#        109875
#        133545
#        152103
#        169328
#        187808
#        207718
#        225473
#        241475
#
# Disc length: 3531 seconds
#
# Revision: 13
# Processed by: cddbd v1.5.2PL0 Copyright (c) Steve Scherf et al.
# Submitted via: ExactAudioCopy v1.0b3
#
DISCID=bc0dc90e
DTITLE=George Benson - Best Of George Benson
DYEAR=1995
DGENRE=Jazz
TTITLE0=Give Me The Night [Edit]
TTITLE1=Love Ballad
TTITLE2=This Masquerade [Edit]
TTITLE3=Love X Love
TTITLE4=I Just Wanna Hang Around You
TTITLE5=Turn Your Love Around
TTITLE6=Inside Love (So Personal)
TTITLE7=20-20
TTITLE8=Everything Must Change [Edit]
TTITLE9=Never Give Up On A Good Thing
TTITLE10=Kisses In The Moonlight
TTITLE11=Lady Love Me (One More Time)
TTITLE12=Lady Blue
TTITLE13=On Broadway [Edit]
EXTD=YEAR: 1995
EXTT0=
EXTT1=
EXTT2=
EXTT3=
EXTT4=
EXTT5=
EXTT6=
EXTT7=
EXTT8=
EXTT9=
EXTT10=
EXTT11=
EXTT12=
EXTT13=
PLAYORDER=
